<?xml version="1.0" encoding="UTF-8" standalone="no"?>
<!-- Created with Inkscape (http://www.inkscape.org/) -->

<svg
   xmlns:dc="http://purl.org/dc/elements/1.1/"
   xmlns:cc="http://creativecommons.org/ns#"
   xmlns:rdf="http://www.w3.org/1999/02/22-rdf-syntax-ns#"
   xmlns:svg="http://www.w3.org/2000/svg"
   xmlns="http://www.w3.org/2000/svg"
   xmlns:sodipodi="http://sodipodi.sourceforge.net/DTD/sodipodi-0.dtd"
   xmlns:inkscape="http://www.inkscape.org/namespaces/inkscape"
   version="1.1"
   id="svg815"
   width="1066.6667"
   height="1066.6667"
   viewBox="0 0 1066.6667 1066.6667"
   sodipodi:docname="icons.svg"
   inkscape:version="0.92.2 (5c3e80d, 2017-08-06)">
  <metadata
     id="metadata821">
    <rdf:RDF>
      <cc:Work
         rdf:about="">
        <dc:format>image/svg+xml</dc:format>
        <dc:type
           rdf:resource="http://purl.org/dc/dcmitype/StillImage" />
        <dc:title></dc:title>
      </cc:Work>
    </rdf:RDF>
  </metadata>
  <defs
     id="defs819" />
  <sodipodi:namedview
     pagecolor="#ffffff"
     bordercolor="#666666"
     borderopacity="1"
     objecttolerance="10"
     gridtolerance="10"
     guidetolerance="10"
     inkscape:pageopacity="0"
     inkscape:pageshadow="2"
     inkscape:window-width="1366"
     inkscape:window-height="705"
     id="namedview817"
     showgrid="false"
     inkscape:snap-bbox="true"
     inkscape:bbox-paths="true"
     inkscape:bbox-nodes="true"
     inkscape:snap-bbox-edge-midpoints="true"
     inkscape:snap-bbox-midpoints="true"
     inkscape:object-paths="true"
     inkscape:snap-intersection-paths="true"
     inkscape:snap-smooth-nodes="true"
     inkscape:snap-midpoints="true"
     inkscape:snap-center="true"
     inkscape:snap-object-midpoints="true"
     inkscape:zoom="0.50249996"
     inkscape:cx="699.22628"
     inkscape:cy="556.67989"
     inkscape:window-x="-8"
     inkscape:window-y="-8"
     inkscape:window-maximized="1"
     inkscape:current-layer="svg815" />
  <g
     id="g1778"
     transform="translate(1443.8474,-59.595434)">
    <path
       inkscape:export-ydpi="23.57"
       inkscape:export-xdpi="23.57"
       inkscape:export-filename="C:\Program Files (x86)\Arduino\lib\icons\256x256\apps\arduino.png"
       id="path1647"
       d="m -910.03125,71.923828 c -3.14183,0.0061 -6.29858,0.02491 -9.44727,0.05469 -12.59475,0.119122 -25.05329,0.425357 -35.8457,0.904296 -5.3962,0.23947 -10.37596,0.521704 -14.74805,0.845704 -4.37208,0.323999 -8.13593,0.688837 -11.10156,1.09375 -7.48586,1.022085 -14.74056,2.124467 -21.80277,3.316406 -7.0621,1.191938 -13.9314,2.475059 -20.6464,3.859375 -6.7151,1.384316 -13.276,2.869532 -19.7208,4.46875 -6.4445,1.599218 -12.7725,3.311794 -19.0234,5.148437 -6.2509,1.836644 -12.4248,3.797938 -18.5586,5.894532 -6.1338,2.096594 -12.2289,4.327962 -18.3222,6.707032 -6.0934,2.37907 -12.1849,4.90577 -18.3145,7.58984 -6.1296,2.68407 -12.2965,5.52552 -18.5391,8.53711 -6.7297,3.24666 -13.2909,6.57398 -19.7109,10.00195 -6.42,3.42797 -12.6993,6.95647 -18.8672,10.60742 -6.1679,3.65098 -12.2239,7.42422 -18.1973,11.33985 -5.9733,3.91563 -11.8628,7.97334 -17.6992,12.19531 -5.8364,4.22197 -11.6198,8.60774 -17.3769,13.17774 -5.7571,4.56999 -11.4892,9.32545 -17.2246,14.28515 -5.7355,4.9597 -11.4748,10.12455 -17.2461,15.51563 -5.7714,5.39107 -11.5746,11.00696 -17.4395,16.87109 -4.308,4.30745 -8.5151,8.63734 -12.623,12.99023 -4.108,4.3529 -8.116,8.73043 -12.0274,13.13477 -3.9113,4.40434 -7.7251,8.83508 -11.4433,13.29688 -3.7183,4.46179 -7.3406,8.95325 -10.8692,13.47851 -3.5286,4.52526 -6.9642,9.08496 -10.3066,13.67969 -3.3425,4.59472 -6.5922,9.22434 -9.752,13.89453 -3.1598,4.67019 -6.2303,9.38114 -9.2109,14.13281 -2.9806,4.75167 -5.8709,9.54562 -8.6758,14.38477 -2.8049,4.83915 -5.5236,9.72362 -8.1562,14.65625 -2.6327,4.93263 -5.1806,9.91319 -7.6446,14.94531 -2.4639,5.03212 -4.8439,10.11434 -7.1425,15.25195 -2.2987,5.13762 -4.5155,10.33097 -6.6524,15.58008 -2.1369,5.24911 -4.1933,10.55526 -6.1719,15.92188 -1.9785,5.36661 -3.8793,10.79308 -5.7031,16.2832 -1.8237,5.49012 -3.5717,11.04247 -5.2441,16.66211 -1.6724,5.61963 -3.2684,11.3054 -4.793,17.06055 -2.2719,8.57656 -4.2997,17.52454 -6.0781,26.76367 -1.7785,9.23912 -3.3091,18.76991 -4.5899,28.51562 -1.2808,9.74572 -2.3108,19.70639 -3.0898,29.80274 -0.779,10.09634 -1.307,20.32813 -1.5801,30.61914 -0.2731,10.291 -0.2917,20.64101 -0.055,30.9707 0.237,10.3297 0.7293,20.63914 1.4805,30.85156 0.7512,10.21242 1.7617,20.3284 3.0312,30.26758 1.2696,9.93918 2.7998,19.70292 4.5918,29.21289 1.2023,6.38045 2.525,12.7191 3.9707,19.01563 1.4457,6.29652 3.013,12.55073 4.7012,18.76172 1.6882,6.21098 3.4979,12.37812 5.4277,18.50195 1.93,6.12383 3.9799,12.20322 6.1504,18.23828 2.1706,6.03506 4.4627,12.02604 6.8731,17.9707 2.4104,5.94467 4.9385,11.84266 7.5879,17.69532 2.6493,5.85266 5.4192,11.65893 8.3066,17.41797 2.8874,5.75903 5.893,11.47096 9.0176,17.13476 3.1245,5.6638 6.3677,11.28071 9.7285,16.84766 3.3608,5.56694 6.8394,11.08426 10.4356,16.55273 3.5962,5.46847 7.3099,10.88748 11.1406,16.25586 3.8307,5.36838 7.7775,10.68645 11.8418,15.95313 4.0643,5.26667 8.2461,10.48117 12.5429,15.64453 4.2971,5.16335 8.7095,10.27557 13.2383,15.33398 4.5288,5.05842 9.1739,10.06377 13.9336,15.01563 4.7597,4.95186 9.6353,9.84967 14.625,14.69336 5.718,5.5506 11.4985,10.94313 17.3418,16.17578 5.8434,5.23264 11.7483,10.30523 17.7188,15.2207 5.9705,4.9155 12.006,9.6724 18.1054,14.2715 6.0995,4.5991 12.2641,9.0407 18.4942,13.3242 6.2301,4.2835 12.5261,8.4102 18.8887,12.3789 6.3625,3.9687 12.7904,7.779 19.2871,11.4336 6.4967,3.6546 13.0607,7.1528 19.6933,10.4941 6.6327,3.3414 13.3352,6.5258 20.1055,9.5547 6.7703,3.029 13.6098,5.9019 20.5195,8.6192 6.9098,2.7172 13.8885,5.2792 20.9395,7.6855 7.0509,2.4064 14.1733,4.6577 21.3672,6.7539 7.1939,2.0963 14.4602,4.0373 21.7988,5.8242 7.3386,1.787 14.7493,3.4201 22.2344,4.8985 7.485,1.4784 15.0444,2.802 22.6777,3.9726 7.63329,1.1707 15.34174,2.1891 23.125,3.0528 7.78326,0.8637 15.64118,1.5733 23.57617,2.1308 4.2867,0.3012 11.92223,0.4268 21.18555,0.416 9.26332,-0.011 20.1552,-0.1577 30.95117,-0.4023 10.79598,-0.2446 21.49619,-0.5859 30.38086,-0.9863 8.88467,-0.4005 15.95302,-0.8596 19.48242,-1.3379 7.95383,-1.0778 15.62466,-2.227 23.0586,-3.459 7.43393,-1.232 14.63037,-2.5476 21.63867,-3.9609 7.0083,-1.4134 13.82892,-2.9231 20.50586,-4.545 6.67693,-1.6218 13.21055,-3.3551 19.65039,-5.2129 6.43983,-1.8575 12.78503,-3.8404 19.08203,-5.9609 6.297,-2.1205 12.54649,-4.3784 18.79492,-6.7891 6.24843,-2.4105 12.49494,-4.9732 18.78906,-7.7011 6.29413,-2.728 12.63623,-5.6229 19.07032,-8.6953 5.43444,-2.5951 10.85091,-5.3208 16.24609,-8.1739 5.39518,-2.853 10.76805,-5.832 16.11133,-8.9316 5.34327,-3.0996 10.65876,-6.3197 15.9375,-9.6543 5.27873,-3.3346 10.5211,-6.7837 15.72265,-10.3418 5.20156,-3.5581 10.36092,-7.226 15.47266,-10.9961 5.11174,-3.7701 10.17626,-7.6427 15.18555,-11.6133 5.00929,-3.9706 9.96322,-8.03765 14.85742,-12.19724 4.8942,-4.15958 9.72767,-8.41096 14.49414,-12.74804 4.76647,-4.33709 9.46569,-8.76058 14.0918,-13.26368 4.6261,-4.50309 9.17924,-9.08654 13.65234,-13.74414 4.4731,-4.6576 8.86637,-9.38884 13.17383,-14.18945 4.30746,-4.80061 8.52902,-9.6714 12.6582,-14.60352 4.12918,-4.93211 8.16721,-9.92639 12.10547,-14.97851 3.93826,-5.05212 7.77701,-10.16164 11.51172,-15.32227 3.7347,-5.16063 7.3643,-10.37126 10.88281,-15.6289 3.51851,-5.25764 6.92712,-10.56115 10.2168,-15.9043 4.95792,-8.05273 9.622,-16.06792 14.00976,-24.09375 4.38776,-8.02583 8.49818,-16.06278 12.34961,-24.16211 3.85143,-8.09933 7.44404,-16.25996 10.79297,-24.5332 3.34894,-8.27325 6.45371,-16.65947 9.33399,-25.20703 2.88027,-8.54757 5.53503,-17.25741 7.98046,-26.17969 2.44545,-8.92229 4.68211,-18.05766 6.72657,-27.45508 2.04445,-9.39741 3.89692,-19.05635 5.57422,-29.0293 1.67729,-9.97295 3.17946,-20.25931 4.52343,-30.9082 0.33412,-2.64736 0.62082,-6.14419 0.85938,-10.2832 0.23856,-4.13902 0.4289,-8.91984 0.57422,-14.13672 0.29063,-10.43376 0.3966,-22.61059 0.32812,-34.87305 -0.0685,-12.26245 -0.31159,-24.60982 -0.7207,-35.39062 -0.20455,-5.3904 -0.45008,-10.38977 -0.73633,-14.78907 -0.28624,-4.39929 -0.61289,-8.19895 -0.97851,-11.19335 -1.5491,-12.6871 -3.28667,-24.5287 -5.28711,-35.83204 -1.00022,-5.65167 -2.06549,-11.16881 -3.20703,-16.58984 -1.14156,-5.42103 -2.35828,-10.74642 -3.66016,-16.01367 -1.30189,-5.26725 -2.68871,-10.47763 -4.16992,-15.66797 -1.48122,-5.19034 -3.05679,-10.36049 -4.73633,-15.55078 -1.67954,-5.19029 -3.46251,-10.39891 -5.35938,-15.66602 -1.89686,-5.2671 -3.90782,-10.59289 -6.04101,-16.01367 -2.1659,-5.50395 -4.81498,-11.70844 -7.73828,-18.19531 -2.92331,-6.48688 -6.12014,-13.25541 -9.38672,-19.88477 -3.26659,-6.62935 -6.6031,-13.12135 -9.79883,-19.05273 -3.19573,-5.93138 -6.25214,-11.30236 -8.96289,-15.69531 -5.21124,-8.44519 -10.68116,-16.7817 -16.39063,-24.98829 -5.70946,-8.20658 -11.6588,-16.28292 -17.82617,-24.20898 -6.16736,-7.92606 -12.55176,-15.70106 -19.13672,-23.30469 -6.58495,-7.60362 -13.3698,-15.03612 -20.33203,-22.27539 -6.96223,-7.23926 -14.10315,-14.28615 -21.40234,-21.11914 -7.29919,-6.83298 -14.75573,-13.4531 -22.35156,-19.83789 -7.59584,-6.38479 -15.33143,-12.53502 -23.1836,-18.42969 -7.85216,-5.89467 -15.82244,-11.53385 -23.89062,-16.89648 -8.95926,-5.95491 -17.9166,-11.56198 -26.9043,-16.83203 -8.9877,-5.27005 -18.00506,-10.20253 -27.08008,-14.8086 -9.07502,-4.60606 -18.20845,-8.8847 -27.42969,-12.84765 -9.22122,-3.96295 -18.53072,-7.61047 -27.95703,-10.951172 -9.42631,-3.340705 -18.96987,-6.375909 -28.66015,-9.115235 -9.69028,-2.739325 -19.52594,-5.182981 -29.53906,-7.341797 -10.01315,-2.158815 -20.20278,-4.031685 -30.59766,-5.630859 -10.39488,-1.599174 -20.99653,-2.923974 -31.83203,-3.984375 -7.02306,-0.687302 -16.96834,-1.15811 -28.30664,-1.427734 -8.50374,-0.202219 -17.79131,-0.291859 -27.2168,-0.273438 z"
       style="opacity:1;fill:#494949;fill-opacity:1;stroke:none;stroke-width:93.56635284;stroke-linecap:round;stroke-linejoin:round;stroke-miterlimit:4;stroke-dasharray:none;stroke-dashoffset:0;stroke-opacity:1"
       inkscape:connector-curvature="0" />
    <path
       inkscape:export-ydpi="23.57"
       inkscape:export-xdpi="23.57"
       inkscape:export-filename="C:\Program Files (x86)\Arduino\lib\icons\256x256\apps\arduino.png"
       id="path1647-1"
       d="m -1271.8789,456.93359 v 279.91797 l 376.68359,376.68364 c 0.0532,-0 0.105,-8e-4 0.1582,-0 10.796,-0.2446 21.49626,-0.5859 30.38086,-0.9863 8.8847,-0.4005 15.95302,-0.8596 19.48242,-1.3379 7.9538,-1.0778 15.6246,-2.227 23.0586,-3.459 7.4339,-1.232 14.63037,-2.5476 21.63867,-3.9609 7.0083,-1.4134 13.82896,-2.9231 20.50586,-4.545 6.6769,-1.6218 13.21049,-3.3548 19.65039,-5.2129 6.4398,-1.8571 12.78503,-3.8404 19.08203,-5.9609 6.297,-2.1205 12.54652,-4.3784 18.79492,-6.7891 6.2485,-2.4103 12.49496,-4.9732 18.78906,-7.7011 6.2941,-2.728 12.63622,-5.6229 19.07032,-8.6953 5.4345,-2.5951 10.85089,-5.3208 16.24609,-8.1739 5.3952,-2.853 10.76813,-5.832 16.11133,-8.9316 5.3433,-3.0996 10.6588,-6.3197 15.9375,-9.6543 5.2788,-3.3346 10.52105,-6.7837 15.72265,-10.3418 5.2015,-3.5581 10.36096,-7.226 15.47266,-10.9961 5.1118,-3.7701 10.17625,-7.6427 15.18555,-11.6133 5.0093,-3.9706 9.96322,-8.03765 14.85742,-12.19724 4.8942,-4.15958 9.72764,-8.41096 14.49414,-12.74804 4.7664,-4.33709 9.4656,-8.76058 14.0918,-13.26368 4.6261,-4.50309 9.17924,-9.08654 13.65234,-13.74414 4.4731,-4.6576 8.86643,-9.38885 13.17383,-14.18945 4.3075,-4.80061 8.529,-9.6714 12.6582,-14.60352 4.1292,-4.93211 8.16717,-9.92639 12.10547,-14.97851 3.9383,-5.05212 7.77702,-10.16164 11.51172,-15.32227 3.7347,-5.16063 7.36431,-10.37126 10.88281,-15.6289 3.5185,-5.25764 6.9271,-10.56115 10.2168,-15.9043 4.9579,-8.05273 9.62196,-16.06792 14.00976,-24.09375 4.3877,-8.02583 8.49821,-16.06278 12.34961,-24.16211 3.8514,-8.09933 7.44407,-16.25996 10.79297,-24.5332 3.3489,-8.27325 6.45369,-16.65947 9.33399,-25.20703 2.8803,-8.54757 5.53508,-17.2574 7.98046,-26.17969 2.4455,-8.92229 4.68217,-18.05766 6.72657,-27.45508 2.0445,-9.39741 3.89692,-19.05635 5.57422,-29.0293 1.6773,-9.97295 3.17943,-20.25931 4.52343,-30.9082 0.3341,-2.64736 0.62088,-6.14419 0.85938,-10.2832 0.2386,-4.13902 0.42882,-8.91984 0.57422,-14.13672 0.15889,-5.70483 0.25647,-11.95164 0.30664,-18.42774 L -540.47656,456.93359 H -813.72852 L -919.90625,563.11133 -1026.084,456.93359 Z"
       style="opacity:1;fill:#323232;fill-opacity:1;stroke:none;stroke-width:93.56635284;stroke-linecap:round;stroke-linejoin:round;stroke-miterlimit:4;stroke-dasharray:none;stroke-dashoffset:0;stroke-opacity:1"
       inkscape:connector-curvature="0" />
    <g
       inkscape:export-ydpi="23.57"
       inkscape:export-xdpi="23.57"
       inkscape:export-filename="C:\Program Files (x86)\Arduino\lib\icons\256x256\apps\arduino.png"
       transform="translate(1277.2926,-27.566322)"
       id="g1659">
      <path
         style="opacity:1;fill:#31cc98;fill-opacity:1;stroke:none;stroke-width:93.56635284;stroke-linecap:round;stroke-linejoin:round;stroke-miterlimit:4;stroke-dasharray:none;stroke-dashoffset:0;stroke-opacity:1"
         d="m -2397.2952,600.33343 c -27.4969,0.003 -41.9129,0.0328 -49.9727,0.37891 -4.0298,0.17303 -6.4704,0.42565 -8.164,0.79297 -1.6937,0.36731 -2.6402,0.84857 -3.6797,1.48242 -1.6873,1.02872 -3.1521,2.26314 -4.3965,3.64648 -1.2445,1.38334 -2.2689,2.91614 -3.0742,4.54688 -0.8054,1.63073 -1.3918,3.358 -1.7618,5.1289 -0.3699,1.77091 -0.5227,3.58483 -0.4609,5.38868 0.062,1.80384 0.3382,3.59855 0.8281,5.32812 0.4899,1.72957 1.1932,3.3953 2.1075,4.94336 0.9143,1.54806 2.0399,2.97895 3.375,4.23828 1.335,1.25934 2.8787,2.34756 4.6308,3.21094 0.9719,0.47892 2.1658,0.85515 4.1777,1.15039 2.012,0.29524 4.8427,0.50877 9.0918,0.66406 8.4984,0.31059 22.6694,0.38512 47.2989,0.39844 l 56.1347,0.0293 4.5,-3.03125 c 1.6828,-1.13398 3.1635,-2.39884 4.4434,-3.76172 1.2799,-1.36288 2.3577,-2.82265 3.2324,-4.34766 0.8747,-1.52501 1.5465,-3.11596 2.0137,-4.73633 0.4672,-1.62037 0.7297,-3.27096 0.7871,-4.91992 0.057,-1.64896 -0.091,-3.29547 -0.4453,-4.90625 -0.3547,-1.61077 -0.9144,-3.18559 -1.6836,-4.6914 -0.7692,-1.50582 -1.7477,-2.94326 -2.9336,-4.27735 -1.1859,-1.33409 -2.5805,-2.56456 -4.1855,-3.66015 -1.0977,-0.74924 -1.925,-1.31273 -3.4454,-1.73438 -1.5203,-0.42165 -3.733,-0.70129 -7.6035,-0.88867 -7.7409,-0.37476 -22.109,-0.37554 -50.8144,-0.37305 z"
         id="path1651"
         inkscape:connector-curvature="0" />
      <path
         style="opacity:1;fill:#31cc98;fill-opacity:1;stroke:none;stroke-width:93.56635284;stroke-linecap:round;stroke-linejoin:round;stroke-miterlimit:4;stroke-dasharray:none;stroke-dashoffset:0;stroke-opacity:1"
         d="m -1966.1644,551.64203 c -2.2328,-0.0385 -4.449,0.17628 -6.4395,0.64843 -0.9952,0.23608 -1.9331,0.53724 -2.789,0.90235 -0.8559,0.3651 -1.6289,0.79402 -2.293,1.28906 -1.889,1.40807 -3.3983,2.74932 -4.6074,4.26758 -0.6046,0.75912 -1.1351,1.56275 -1.5996,2.4414 -0.4645,0.87865 -0.8627,1.8331 -1.207,2.89258 -0.6887,2.11897 -1.1588,4.66088 -1.4864,7.8711 -0.3276,3.21021 -0.5146,7.08691 -0.6406,11.8789 l -0.459,17.50586 -19.541,0.63867 c -5.3734,0.17564 -10.6555,0.49826 -14.8379,0.875 -4.1824,0.37674 -7.264,0.80716 -8.2363,1.20313 -0.9723,0.39597 -2.2841,1.31704 -3.6133,2.48047 -1.3292,1.16342 -2.6763,2.57021 -3.7207,3.93945 -0.785,1.02923 -1.4147,1.93681 -1.918,2.81641 -0.5032,0.87959 -0.8797,1.73045 -1.1582,2.64843 -0.2784,0.91798 -0.4596,1.90249 -0.5703,3.04688 -0.1107,1.14438 -0.1504,2.449 -0.1504,4.00781 0,1.54017 0.041,2.83591 0.1504,3.97461 0.109,1.1387 0.2853,2.12045 0.5547,3.03125 0.2694,0.9108 0.6321,1.75096 1.1133,2.60742 0.4811,0.85646 1.08,1.72939 1.8242,2.70508 0.721,0.94525 1.4513,1.79765 2.2148,2.56641 0.7636,0.76875 1.5617,1.45378 2.4219,2.06054 0.8602,0.60677 1.7821,1.13642 2.793,1.59571 1.0109,0.45928 2.1105,0.84752 3.3262,1.17382 2.4313,0.65261 5.3259,1.05399 8.9003,1.26172 3.5745,0.20774 7.8286,0.22266 12.9786,0.10157 l 17.4863,-0.41211 0.4512,18 c 0.1329,5.30208 0.3354,9.54332 0.7148,13 0.1897,1.72833 0.4232,3.26193 0.7149,4.63281 0.2916,1.37087 0.6419,2.57944 1.0625,3.66211 0.4205,1.08267 0.9119,2.03862 1.4882,2.90234 0.5764,0.86372 1.2371,1.63558 1.9961,2.34961 0.759,0.71403 1.6154,1.37031 2.584,2.00391 0.9686,0.6336 2.0488,1.24476 3.2539,1.86719 1.793,0.92606 3.5629,1.59418 5.3125,2.00585 1.7496,0.41167 3.4794,0.56597 5.1914,0.46289 1.7121,-0.10307 3.4076,-0.46386 5.0879,-1.08203 1.6803,-0.61816 3.3456,-1.49334 5,-2.62695 2.0202,-1.38427 3.6127,-2.64832 4.8731,-4.07422 0.6302,-0.71295 1.1781,-1.46625 1.6543,-2.29492 0.4761,-0.82867 0.8804,-1.73345 1.2265,-2.74805 0.6922,-2.02918 1.1474,-4.50117 1.4629,-7.69531 0.3155,-3.19414 0.4907,-7.1105 0.6211,-12.03125 l 0.4688,-17.66601 h 13.9121 c 4.0129,0 7.3102,-0.0911 10.0937,-0.33594 2.7835,-0.24486 5.053,-0.64386 7.0137,-1.26172 1.9607,-0.61786 3.6117,-1.4552 5.1562,-2.57422 1.5446,-1.11902 2.9826,-2.51925 4.5176,-4.26758 1.6957,-1.93129 2.995,-3.83761 3.8985,-5.75976 0.4517,-0.96108 0.804,-1.92626 1.0585,-2.90039 0.2546,-0.97414 0.4108,-1.95766 0.4688,-2.95508 0.058,-0.99742 0.019,-2.01008 -0.1191,-3.04102 -0.138,-1.03094 -0.3738,-2.07961 -0.7071,-3.15429 -0.6666,-2.14937 -1.7234,-4.3975 -3.1679,-6.78321 -1.0586,-1.74819 -2.1527,-3.16306 -3.4786,-4.3125 -0.6629,-0.57472 -1.3833,-1.08246 -2.1875,-1.5332 -0.8041,-0.45074 -1.6905,-0.8436 -2.6855,-1.1875 -1.9899,-0.68781 -4.4122,-1.17967 -7.4629,-1.54297 -3.0507,-0.3633 -6.7302,-0.59753 -11.2383,-0.77344 l -16,-0.625 v -17.49609 c 0,-4.87857 -0.077,-8.78897 -0.3105,-11.99414 -0.2334,-3.20517 -0.6243,-5.70598 -1.252,-7.76563 -0.3138,-1.02982 -0.6863,-1.9486 -1.1289,-2.79101 -0.4426,-0.84242 -0.9554,-1.60714 -1.5469,-2.32813 -1.1829,-1.44197 -2.683,-2.70837 -4.582,-4.06054 -0.729,-0.51908 -1.5583,-0.97562 -2.4629,-1.3711 -0.9045,-0.39548 -1.8844,-0.72902 -2.9121,-1 -2.0553,-0.54196 -4.3043,-0.83452 -6.5371,-0.87304 z"
         id="path1649"
         inkscape:connector-curvature="0" />
      <path
         style="opacity:1;fill:#31cc98;fill-opacity:1;stroke:none;stroke-width:93.56635284;stroke-linecap:round;stroke-linejoin:round;stroke-miterlimit:4;stroke-dasharray:none;stroke-dashoffset:0;stroke-opacity:1"
         d="m -1968.766,418.50531 c -4.2974,-1.3e-4 -8.4504,0.0897 -12.4843,0.27539 -4.034,0.18573 -7.9483,0.46832 -11.7696,0.85156 -3.8212,0.38324 -7.5497,0.8666 -11.209,1.45898 -3.6592,0.59239 -7.2506,1.29229 -10.7988,2.10547 -3.5481,0.81318 -7.0532,1.74149 -10.541,2.78711 -3.4878,1.04562 -6.9573,2.2103 -10.4355,3.5 -3.4783,1.28971 -6.9649,2.70261 -10.4844,4.24805 -3.5196,1.54543 -7.072,3.22234 -10.6836,5.03516 -3.1562,1.58422 -6.051,3.08003 -8.7969,4.58203 -2.7459,1.50199 -5.3441,3.01035 -7.9101,4.62109 -2.5661,1.61074 -5.1001,3.32391 -7.7168,5.23438 -2.6168,1.91046 -5.315,4.01874 -8.2129,6.41992 -5.7958,4.80234 -12.3842,10.77644 -20.6875,18.6875 -8.3033,7.91105 -18.3219,17.75902 -30.9766,30.30664 l -46.707,46.3125 -41.959,-42.03711 c -11.5389,-11.56019 -23.0037,-22.86705 -32.1797,-31.76953 -9.1759,-8.90249 -16.0639,-15.40063 -18.4473,-17.34766 -5.1374,-4.19701 -10.3826,-8.09611 -15.7363,-11.69726 -5.3536,-3.60116 -10.8153,-6.90437 -16.3867,-9.91016 -5.5714,-3.00579 -11.2521,-5.71407 -17.0429,-8.125 -5.7908,-2.41093 -11.6913,-4.52524 -17.7032,-6.3418 -6.0118,-1.81655 -12.1346,-3.33591 -18.3691,-4.55859 -6.2346,-1.22268 -12.5822,-2.14805 -19.041,-2.77735 -6.4589,-0.6293 -13.03,-0.96358 -19.7149,-1 -6.6848,-0.0364 -13.4821,0.22528 -20.3945,0.78125 -5.4277,0.43656 -10.7292,1.05064 -15.918,1.84766 -5.1887,0.79702 -10.2642,1.77682 -15.2402,2.94531 -4.976,1.1685 -9.8531,2.52519 -14.6426,4.07618 -4.7894,1.55098 -9.492,3.29574 -14.1211,5.24023 -4.6291,1.94449 -9.1847,4.08849 -13.6797,6.4375 -4.495,2.34901 -8.9292,4.90343 -13.3164,7.66797 -4.3871,2.76454 -8.7277,5.7386 -13.0332,8.92969 -4.3054,3.19108 -8.5761,6.59791 -12.8261,10.22656 -4.8688,4.15691 -9.4952,8.45702 -13.877,12.89648 -4.3818,4.43946 -8.5198,9.01885 -12.4121,13.73633 -3.8923,4.71748 -7.5391,9.57348 -10.9395,14.56445 -3.4003,4.99097 -6.553,10.11703 -9.4589,15.37696 -2.906,5.25993 -5.5637,10.65337 -7.9727,16.17773 -2.409,5.52436 -4.569,11.18058 -6.4785,16.96484 -1.9095,5.78427 -3.569,11.69669 -4.9766,17.73633 -1.4075,6.03964 -2.5637,12.20561 -3.4668,18.4961 -0.6444,4.48843 -1.0233,10.24577 -1.166,16.6289 -0.1427,6.38313 -0.049,13.3914 0.2539,20.37891 0.303,6.98751 0.815,13.95429 1.5078,20.25586 0.6928,6.30157 1.5672,11.93835 2.5938,16.26367 1.0839,4.5668 2.2789,9.01528 3.5918,13.35742 1.3129,4.34214 2.7422,8.57796 4.2968,12.71875 1.5547,4.14079 3.234,8.18761 5.043,12.15041 1.809,3.9627 3.7481,7.8424 5.8242,11.6504 2.0762,3.808 4.2886,7.5441 6.6446,11.2207 2.3559,3.6766 4.8554,7.2928 7.5039,10.8613 2.6485,3.5685 5.4466,7.0886 8.4004,10.5723 2.9537,3.4837 6.0642,6.9312 9.3359,10.3535 3.5357,3.6984 7.104,7.219 10.7168,10.5664 3.6128,3.3474 7.2698,6.5228 10.9766,9.5293 3.7067,3.0065 7.4637,5.8439 11.2812,8.5195 3.8176,2.6757 7.6955,5.1881 11.6406,7.543 3.9452,2.3549 7.9573,4.5516 12.0469,6.5957 4.0897,2.0441 8.2569,3.9363 12.5078,5.6797 4.251,1.7434 8.5866,3.3383 13.0157,4.791 4.429,1.4527 8.952,2.7634 13.5761,3.9355 4.9119,1.2452 9.1714,2.2316 13.2403,3.004 4.0688,0.7723 7.9455,1.3314 12.0937,1.7168 4.1482,0.3853 8.5669,0.5977 13.7168,0.6816 5.1499,0.084 11.0315,0.038 18.1055,-0.094 10.3584,-0.1929 17.4339,-0.4553 23.0488,-0.9492 2.8075,-0.2469 5.2499,-0.5513 7.5547,-0.9336 2.3048,-0.3822 4.4729,-0.8428 6.7305,-1.4004 7.1074,-1.7554 14.0364,-3.7948 20.746,-6.0976 6.7097,-2.3029 13.1991,-4.8688 19.4239,-7.6797 3.1123,-1.4055 6.1599,-2.8714 9.1347,-4.3965 2.9749,-1.5251 5.8768,-3.1102 8.7032,-4.75 2.8263,-1.6398 5.5771,-3.3344 8.2441,-5.084 2.667,-1.7496 5.2513,-3.5537 7.7481,-5.4082 1.4844,-1.1025 4.1562,-3.414 7.7265,-6.6582 3.5703,-3.2442 8.0394,-7.4206 13.1152,-12.2539 10.1517,-9.6665 22.734,-21.959 35.4258,-34.666 l 45.5996,-45.65626 44.4004,43.98436 c 12.2098,12.0956 24.4656,23.9544 34.375,33.3164 9.9094,9.3621 17.4717,16.2271 20.2969,18.336 5.7634,4.3022 11.4252,8.1714 17.0918,11.6582 2.8332,1.7434 5.6689,3.3926 8.5175,4.9511 2.8487,1.5586 5.7112,3.0278 8.6016,4.4141 2.8904,1.3864 5.809,2.6892 8.7676,3.916 2.9586,1.2268 5.9566,2.3771 9.0098,3.4571 6.1063,2.1598 12.4291,4.039 19.0722,5.6875 4.3146,1.0706 8.2582,1.951 12.0879,2.6699 3.8297,0.7188 7.5447,1.276 11.4004,1.6992 3.8557,0.4232 7.8515,0.7129 12.2441,0.8965 4.3926,0.1835 9.1827,0.2597 14.6231,0.2597 6.7797,0 13.4152,-0.2802 19.9121,-0.8457 6.4969,-0.5654 12.8555,-1.4148 19.082,-2.5507 6.2266,-1.136 12.3203,-2.56 18.2891,-4.2715 5.9688,-1.7116 11.8115,-3.7118 17.5351,-6.0039 5.7237,-2.2922 11.3293,-4.8762 16.8204,-7.7539 5.4911,-2.8778 10.8675,-6.0492 16.1386,-9.5176 5.2711,-3.4684 10.4364,-7.2328 15.5,-11.2969 5.0637,-4.0641 10.0258,-8.427 14.8946,-13.0918 3.7956,-3.6366 7.4066,-7.3227 10.8379,-11.0683 3.4312,-3.7457 6.6842,-7.5505 9.7617,-11.4239 3.0775,-3.8733 5.9803,-7.8163 8.7148,-11.8359 2.7345,-4.0197 5.2991,-8.1163 7.7012,-12.3008 2.4021,-4.1845 4.6422,-8.4562 6.7226,-12.8242 2.0805,-4.368 4.0021,-8.8342 5.7715,-13.40432 1.7695,-4.57013 3.3863,-9.24431 4.8555,-14.03515 1.4691,-4.79085 2.7912,-9.69836 3.9707,-14.72852 0.8545,-3.64427 1.5115,-6.57739 2.0176,-9.34375 0.506,-2.76636 0.8613,-5.36545 1.1094,-8.33984 0.2481,-2.9744 0.3899,-6.32342 0.4707,-10.5918 0.081,-4.26838 0.1,-9.45521 0.1035,-16.10351 0,-7.95259 -0.1063,-14.68976 -0.4043,-20.6875 -0.298,-5.99775 -0.783,-11.25557 -1.5254,-16.25196 -0.7424,-4.99639 -1.7418,-9.73117 -3.0703,-14.67969 -1.3285,-4.94851 -2.9848,-10.11267 -5.041,-15.96679 -1.2912,-3.67597 -2.6954,-7.3071 -4.2051,-10.89258 -1.5098,-3.58548 -3.1264,-7.12508 -4.8457,-10.61133 -1.7194,-3.48624 -3.5411,-6.92057 -5.461,-10.29883 -1.9199,-3.37825 -3.9373,-6.69942 -6.0488,-9.96093 -2.1114,-3.26152 -4.3173,-6.46359 -6.6113,-9.59961 -2.294,-3.13603 -4.677,-6.20721 -7.1445,-9.20899 -2.4676,-3.00178 -5.0184,-5.93418 -7.6504,-8.79297 -2.6321,-2.85879 -5.3453,-5.64256 -8.1329,-8.34961 -2.7875,-2.70704 -5.6499,-5.33626 -8.5839,-7.88281 -2.9341,-2.54655 -5.9402,-5.01136 -9.0118,-7.38867 -3.0715,-2.37731 -6.2081,-4.66788 -9.4082,-6.86719 -3.2,-2.19931 -6.4637,-4.30775 -9.7832,-6.32031 -3.3195,-2.01256 -6.695,-3.92903 -10.125,-5.74609 -3.4299,-1.81707 -6.9139,-3.53367 -10.4453,-5.14649 -3.5314,-1.61282 -7.1105,-3.12166 -10.7343,-4.52148 -3.6239,-1.39982 -7.2928,-2.69108 -11,-3.86914 -5.1858,-1.6479 -10.0496,-3.02021 -14.8418,-4.15235 -4.7923,-1.13214 -9.5115,-2.02337 -14.4043,-2.70898 -4.8929,-0.68561 -9.9598,-1.1663 -15.4473,-1.47461 -5.4875,-0.30831 -11.3965,-0.44507 -17.9727,-0.44531 z m -0.8613,92.34375 c 3.2868,-0.069 6.5664,-0.0166 9.7988,0.16015 3.2325,0.17679 6.418,0.47806 9.5157,0.90821 3.0976,0.43014 6.1078,0.99056 8.9902,1.68164 2.3425,0.56164 4.6673,1.21254 6.9687,1.95117 2.3015,0.73862 4.5806,1.56382 6.8321,2.4707 2.2514,0.90688 4.4754,1.89647 6.6679,2.96289 2.1926,1.06642 4.3537,2.2105 6.4786,3.42774 4.2496,2.43446 8.3539,5.1611 12.2793,8.14648 3.9253,2.98538 7.6711,6.22879 11.2011,9.69531 3.5301,3.46653 6.8446,7.15727 9.9082,11.03516 3.0637,3.87789 5.8762,7.94263 8.4024,12.16211 1.2631,2.10974 2.4549,4.2574 3.5703,6.43945 1.1154,2.18205 2.1544,4.39889 3.1133,6.64453 0.9588,2.24565 1.8374,4.52175 2.6308,6.82227 0.7934,2.30051 1.5021,4.62599 2.1211,6.97266 0.736,2.78984 1.306,6.85046 1.7051,11.53906 0.3991,4.68859 0.6277,10.00507 0.6777,15.30664 0.05,5.30157 -0.077,10.58803 -0.3886,15.2168 -0.3111,4.62876 -0.8059,8.59934 -1.4903,11.26953 -0.8019,3.12857 -1.7499,6.23032 -2.834,9.29297 -1.084,3.06264 -2.3048,6.08679 -3.6543,9.05859 -1.3494,2.9718 -2.8277,5.892 -4.4257,8.74805 -1.5981,2.85604 -3.3147,5.64789 -5.1446,8.36328 -1.8298,2.71538 -3.7715,5.35448 -5.8164,7.90429 -2.0449,2.54982 -4.1943,5.00981 -6.4375,7.36914 -2.2431,2.35934 -4.5812,4.61774 -7.0058,6.76174 -2.4246,2.1439 -4.9362,4.1745 -7.5254,6.0781 -2.4364,1.7913 -4.7902,3.394 -7.166,4.8613 -2.3759,1.4674 -4.7735,2.7988 -7.2969,4.045 -2.5234,1.2461 -5.1719,2.4074 -8.0508,3.5351 -2.8789,1.1277 -5.9871,2.222 -9.4297,3.334 -2.3945,0.7735 -4.4738,1.3921 -6.4844,1.8926 -2.0105,0.5005 -3.953,0.8816 -6.0703,1.1777 -4.2345,0.5923 -9.1731,0.8443 -16.7793,1.0313 -6.0957,0.1498 -11.2403,0.1106 -15.539,-0.125 -4.2988,-0.2357 -7.7518,-0.6663 -10.461,-1.2989 -3.6516,-0.8525 -6.9846,-1.6998 -10.123,-2.6289 -3.1385,-0.9291 -6.0828,-1.9404 -8.9551,-3.125 -2.8723,-1.1846 -5.6722,-2.543 -8.5254,-4.1621 -2.8531,-1.6191 -5.7588,-3.4998 -8.8398,-5.7324 -3.081,-2.2326 -6.3368,-4.8168 -9.8926,-7.8418 -3.5558,-3.025 -7.4118,-6.4898 -11.6895,-10.48633 -8.5552,-7.99296 -18.8001,-18.10796 -31.7246,-31.06055 l -41.7519,-41.84179 43.7519,-43.95508 c 11.1133,-11.16479 19.7503,-19.80476 26.6875,-26.60156 6.9373,-6.79681 12.1736,-11.74893 16.4825,-15.53907 4.3089,-3.79013 7.6917,-6.4177 10.9199,-8.5625 3.2282,-2.1448 6.3029,-3.80718 9.998,-5.66797 2.3515,-1.18413 4.8963,-2.26591 7.5957,-3.24218 2.6995,-0.97627 5.5525,-1.8466 8.5196,-2.60742 2.967,-0.76082 6.049,-1.41339 9.2031,-1.95118 3.1541,-0.53778 6.3799,-0.96235 9.6406,-1.26953 3.2607,-0.30717 6.555,-0.49742 9.8418,-0.5664 z m -437.1386,1.50976 c 5.3673,0.003 10.1412,0.17851 14.5488,0.57617 4.4076,0.39767 8.4489,1.01728 12.3535,1.91407 3.9046,0.89678 7.673,2.06953 11.5313,3.57031 3.8582,1.50078 7.8076,3.3294 12.0761,5.53906 2.9304,1.51692 5.2565,2.77062 7.7813,4.47461 2.5248,1.70399 5.2465,3.86011 8.9687,7.18164 3.7223,3.32154 8.4441,7.80817 14.9668,14.17774 6.5228,6.36956 14.8471,14.62066 25.7735,25.46875 l 45.3339,45.00976 -45.3339,45.5 c -12.4667,12.51268 -24.5496,24.37487 -33.9746,33.40629 -4.7125,4.5157 -8.7605,8.3225 -11.8594,11.1504 -3.099,2.8278 -5.2494,4.6764 -6.166,5.2714 -2.5148,1.6325 -5.1958,3.1436 -8.0137,4.5293 -2.8179,1.3858 -5.7732,2.6465 -8.8359,3.7754 -3.0627,1.129 -6.2332,2.1262 -9.4825,2.9883 -3.2492,0.8621 -6.5755,1.5888 -9.9531,2.1738 -3.3776,0.5851 -6.8063,1.0302 -10.2539,1.3282 -3.4476,0.298 -6.9156,0.4484 -10.375,0.4492 -3.4594,8e-4 -6.9093,-0.1487 -10.3223,-0.4551 -3.4129,-0.3064 -6.7894,-0.7688 -10.0976,-1.3926 -2.794,-0.5268 -5.4908,-1.1257 -8.1074,-1.8047 -2.6167,-0.6789 -5.1526,-1.438 -7.6211,-2.2851 -2.4686,-0.8471 -4.871,-1.7833 -7.2207,-2.8145 -2.3498,-1.0311 -4.646,-2.1575 -6.9063,-3.3886 -2.2603,-1.2312 -4.4835,-2.5666 -6.6836,-4.0137 -2.2,-1.4472 -4.3777,-3.0065 -6.5469,-4.6856 -2.1691,-1.679 -4.3305,-3.4773 -6.498,-5.4043 -2.1675,-1.9269 -4.3419,-3.983 -6.5371,-6.1738 -3.1797,-3.17329 -6.1185,-6.4033 -8.8223,-9.69921 -2.7037,-3.29591 -5.172,-6.65668 -7.4043,-10.08789 -2.2322,-3.43121 -4.229,-6.93446 -5.9941,-10.51367 -1.7652,-3.57922 -3.2971,-7.2347 -4.5996,-10.97461 -1.3025,-3.73992 -2.3765,-7.56325 -3.2207,-11.47657 -0.8443,-3.91331 -1.4592,-7.91621 -1.8496,-12.01562 -0.3905,-4.09941 -0.5551,-8.29554 -0.4961,-12.59375 0.059,-4.29821 0.3417,-8.69928 0.8457,-13.20898 0.5143,-4.60278 1.32,-9.13032 2.4043,-13.5625 1.0843,-4.43219 2.4475,-8.76922 4.0742,-12.99219 1.6267,-4.22298 3.5166,-8.3315 5.6582,-12.30664 2.1416,-3.97514 4.5331,-7.81718 7.1621,-11.50586 2.629,-3.68869 5.4952,-7.22429 8.584,-10.58789 3.0888,-3.36361 6.4007,-6.55479 9.9219,-9.55469 3.5211,-2.9999 7.2518,-5.80867 11.1777,-8.40625 3.9259,-2.59758 8.0484,-4.98399 12.3516,-7.14063 3.3004,-1.65408 6.6698,-3.07145 10.1836,-4.26757 3.5137,-1.19612 7.1709,-2.17026 11.0449,-2.9375 3.874,-0.76725 7.9646,-1.32785 12.3457,-1.69532 4.3811,-0.36746 9.0528,-0.54229 14.0879,-0.53906 z"
         id="path1643"
         inkscape:connector-curvature="0" />
    </g>
  </g>
</svg>
